<svg xmlns="http://www.w3.org/2000/svg" fill="#FEBF10" viewBox="67.32 37.76 356.6 444.04" width="48px" height="48px"><path fill="#FEBF10" d="M302.8 84.7c.5-6.2 2.1-17.6-3.9-21.9-6-4.2-17.9-1.2-24 1.4-2.4 1-4.4 2.3-6.2 3.8-.4.6-.8 1.2-1.4 1.8-.4.5-.9.8-1.4 1.1-5.9 7.2-7.5 17.6-7.6 27.2-.1 8.1.4 16.3.8 24.4.6 10.2.2 20.3 0 30.6-.6 28.9.2 57.8-1 86.7 0 .9-.2 1.7-.6 2.3 5.4 0 10.9.2 16.2.9.6.1 1.2.2 1.9.3.5-27.8 7.4-54.7 13-81.9 3.1-14.6 5.3-29.2 6.7-44.1.8-8.4 2-17.3 5.7-25 .7-1.4 1.5-2.9 2.4-4.2C303.1 87.2 302.7 86 302.8 84.7zM259.3 62.4c0-.2 0-.4 0-.7V52c-4.4-.2-8.9-.5-13.3-.6-3.5 0-12.2-.8-14.6 1.9-1.7 1.9-3.9 2.2-5.7 1.5 1.3 20.4 5.1 40.6 5.5 61.1 5.5-.6 11-1 16.4-1.2-.6-10.6-.9-21.3 1.2-31.7C250.5 74.8 254.1 67.7 259.3 62.4zM248.8 137.6c0-3.9-.2-7.8-.5-11.8-7.7.2-15.7.9-23.4 2.1-2.4 37.8.2 75.8.3 113.6 1.6.2 3.1.3 4.7.4 5.8.4 11.6.4 17.5.3-.1-.5-.2-1-.2-1.6.1-2 .2-4 .2-6 .5-16.5.5-33 .5-49.5C248 169.3 248.9 153.4 248.8 137.6zM384.4 86.4c-.1-4-.1-8.8-1.9-12.4-.7-1.4-3.1-1.8-4.4-2.2-3.7-1-7.5-1.9-11.3-2.6-5.6-1-12.5-2.3-18 .1-5.6 2.4-6.5 9.2-6.6 14.7 0 .9-.2 1.7-.6 2.4 1 1.1 2 2.2 2.7 3.5 9.5 16.7 1.1 38.1-1.6 55.6-3.5 21.9.5 47.5-11.5 67.2 9.3-2.2 19-2.8 28.6-3.5-.3-.8-.3-1.8 0-2.9 9-33.4 10.5-68.3 18-102 .5-2.2 2.5-4.5 5-4.4.4 0 .8 0 1.2 0C384.2 95.3 384.5 90.8 384.4 86.4zM404.7 115.7c-.8-2.9-5.7-3.3-8.6-3.8-2.8-.5-5.6-.8-8.4-1-6.7 32.2-8.4 65.3-16.9 97.1 7.7-.9 15.4-1.5 23.2-2.2.8-1.3 2.1-2.3 3.4-2.7 5.2-19.3 2.4-40.4 4.7-60.1.6-5 1.5-9.9 2.1-14.8C404.7 124.5 405.8 119.5 404.7 115.7zM334.7 95.1c-3.7-5.1-15-8.7-20-3.4-5.4 5.7-6.8 14.3-7.8 21.8-1.7 13.1-2.6 26.1-5.1 39-5.8 30.4-14.9 60.5-15.1 91.7 1.5-.1 2.9-.3 4.3-.8 5-1.8 8.1-6 11.3-10 6.1-7.7 13-14.5 21.8-18.4-2.8-1-4.8-4-2.8-7.2 4.5-7.4 6.2-15.8 7.1-24.3 1.3-11.9 1.7-23.9 2.9-35.8.9-9.1 3.5-17.9 4.9-26.9C337.4 113.2 339.7 101.9 334.7 95.1zM214.3 48.8c-7.1-.2-14.2.9-21.4 1.5 4.4 15.8.9 34.5-.8 50.1-2.6 24.3-1.5 49-1.5 73.4 0 3.3-2.4 5.2-4.9 5.7 4.8 17.5 9 35 10.6 53 5.4 3.7 11.5 5.9 17.8 7.3-.2-39.2-2.7-78.4.1-117.6.2-2.6 2.8-4 5-4.4.3-.1.6-.1.9-.2C219.9 94.5 215.1 71.8 214.3 48.8z"/><path fill="#EF4823" d="M405.1,215.8c-0.2,0-0.3,0-0.5,0.1c-1.6,3.7-6.8,3.5-9.1,0.9c-1.3,0.1-2.6,0.2-3.8,0.3c-8.4,0.7-16.8,1.3-25.1,2.6c-12.7,1.9-26.5,0.3-38.5,5.6c-11.5,5.1-16.2,16.7-25.6,24.2c-9.6,7.7-20.9,5.4-32.1,4.2c-14.7-1.6-29.6,0.4-44.4-1c-11.8-1.2-24.4-3.4-34.5-10c-2.6,0.1-5.2-1.3-5.6-4.4c-6.6-5.9-12.5-13.4-20.7-16.8c-6.8-2.9-15.7-1.3-22.9-0.7c-7.6,0.7-15.2,1.6-22.8,1.4c-9.5-0.3-19.1-0.2-28.6-0.7c-3.1-0.2-7.5,0-11.5-0.5c6.3,39,19.3,76.5,29.3,114.7c5.5,20.7,10.4,41.6,16.4,62.2c2.9,9.9,5.6,19.9,9.6,29.5c3.5,8.4,7,16.6,8.2,25.7c0,0.2,0,0.3,0,0.4c12.3,6.2,26.5,8.8,39.8,11.3c19.2,3.6,38.3,6.2,57.9,6.2c20.7,0,41.4-2.3,62-4c8.2-0.7,16.3-1.5,24.5-2.4c5.1-0.6,13.5-0.6,17.6-4.3c0.3-0.3,0.7-0.6,1.1-0.8c0.1-0.2,0.3-0.5,0.4-0.7c26.7-39.1,33.9-88.7,42.9-134.1c5-25.4,9.3-51.2,15.3-76.3c1.8-7.5,3.8-14.9,5.6-22.4c0.8-3.5,1.7-7.1,2.3-10.7c0-0.1,0-0.3,0.1-0.4C409.9,215,407.4,215.5,405.1,215.8z"/><path fill="#FEBF10" d="M111.4 198.9c-1.3-8-2.4-16-3.6-24-1.5-10-2.5-20-3.4-30.1h-1.9c-.5 0-1 0-1.5-.1-.6.3-1.4.5-2.3.5-6.3.1-12.5.9-18.7 2 1.9 20.7 12.8 39.9 11.7 61.1 0 .8-.2 1.5-.5 2.1 1.9.1 3.9.1 5.8.2 5.6.1 11.3.4 17 .5C112.1 207.6 111.9 201.9 111.4 198.9zM183.3 58.6c-5.4-2.4-12.9-1.9-18.5-1.7-5.3.2-10.8.4-16 1.5 0 3.5.1 7.1.5 10.6 3.4-.2 6.8-.4 10.1-.8 3.2-.4 5.1 1.6 5.6 4 1.2.8 1.9 2.1 1.8 4.1-1.4 27.9 5.4 54.6 12.9 81.2-.3-18.3-.6-36.8 1.4-54.9 1.1-10.2 2.5-20.5 2.8-30.8C183.8 67.4 183.8 63 183.3 58.6z"/><path fill="#FEBF10" d="M155.7 79.6c-2.9.2-5.9.2-8.8.4-1.6.9-3.4 1-4.9.3-4.1.4-8.1 1.2-11.6 2.9 1.3 5.2 2.4 10.4 2.2 15.7 4.9 1.6 8.9 4.7 11.3 10.7 5.5 13.9 4.4 29.4 6.3 44 1.6 11.6 4.6 23.1 6.7 34.7 1.1 5.9 2.2 11.8 2.8 17.8.1.9.2 1.8.2 2.9 3.1.2 6.2.8 9.1 2 5.9 2.5 10.6 6.4 15.2 10.7C177 173.8 154.1 128.7 155.7 79.6zM148.7 207.6c-.2-2.3-.5-4.5-.8-6.7-.9-5.7-1.9-11.4-3-17-1.9-9.7-4.5-19.5-5.7-29.4-1.5-12.7-.8-26.2-4.8-38.5-1.7-5.3-3.6-7.1-9.4-7.5-4.4-.3-8.7.1-13.1.4 2.5 20.8 3.2 41.8 6.3 62.4 1.1 7.3 2.1 14.5 3.2 21.8.5 3.3 1 6.7 1.7 10 .1.7.2 1.3.5 2.1 1.4 1.6 1.3 3.9.3 5.8.1 0 .1 0 .2 0 8.1-.4 16.2-1.5 24.3-1.8 0-.1.1-.2.1-.3C148.7 208.4 148.7 208 148.7 207.6z"/><path fill="#010101" d="M421.4,204.6c-1.2-0.9-2.5-1.3-3.8-1.2c-0.5-0.1-0.9-0.2-1.5-0.2h-3.3c-1.1,0-2,0.3-2.7,0.7c-0.6,0.1-1.2,0.2-1.8,0.3c5-21.2,2.2-43.9,5.5-65.4c1.4-8.9,5.5-23.4-0.8-31.3c-3.8-4.7-11-6.6-18-7.4c0.6-10.9,2.3-23.2-3.4-32.6c-4.3-7.1-16.6-8.2-23.8-9.6c-8.2-1.5-17.8-2.3-25.3,2.1c-7.4,4.2-10.1,12-10.8,19.9c-4-1.4-8.3-2-12-1.8c-1.9,0.1-3.7,0.5-5.4,1.1c0.3-7.2-0.3-14.4-4.1-20.6c-5.3-8.9-16.8-9.2-25.8-8.1c-5.1,0.6-9.8,1.9-14,3.9v-8.2c0-3.2-3.1-5-5.9-5.1c-7.2-0.1-14.4-0.8-21.6-0.7c-5.6,0-12.6,0.2-17.4,3.7c0-0.3,0-0.6,0-0.9c0-2.3-2.2-4.7-4.4-5c-12.1-1.5-23.9,1.3-36,1.4c-3.1,0-5.9,3.7-5,6.7c-4.5-0.6-9.2-0.6-13.4-0.5c-8.3,0-17,0.6-25,3.1c-2.5,0.8-3.7,3.2-3.7,5.6c0,5.2,0.1,10.2,0.6,15.3c-5.1,0.7-10.1,1.8-14.7,4.3c-3.1,0.4-6.2,3.3-5.2,7.3c1.3,5.2,3.1,10.6,3.1,16c-5.5,0-11.2,0.7-16.3,0.7c-2.9,0-5.5,3.1-5.1,5.9c1.4,9.9,2.3,19.8,3.2,29.7h-1.8c-0.7,0-1.4,0.2-2.1,0.6c-0.5-0.1-1.1-0.2-1.7-0.2c-8.1,0.1-16.1,1.4-24,3c-3.1,0.6-5.1,2.6-5.1,5.9c0.3,22.7,13.1,43.2,12,66c0,0.1,0,0.3,0,0.4c-0.5-0.1-0.9-0.1-1.4-0.2c-2.5-0.4-1.9-1.1-0.6,0.8c-2.5-3.5-6.8-2.6-8.9-0.1c-1.8,0.8-3,2.6-2.6,5.1C73,255.7,86,294.5,96.7,333.8c5.6,20.5,10.4,41.3,16.2,61.8c2.9,10.1,5.5,20.5,9.3,30.3c3.1,8,7.1,15.8,8.9,24.2c-2.5,2.2-3.1,7.1,0.7,9.6c14.3,9.2,32.3,12.6,48.7,15.7c20.8,4,41.5,6.4,62.7,6.4c21.9,0,43.9-2.7,65.7-4.5c8.1-0.7,16.2-1.5,24.2-2.6c7.1-1,14.3-2.5,19.7-7.4c0,0,0,0,0,0c0.5-0.3,1-0.8,1.5-1.5c28.3-41.3,36.2-92.6,45.7-140.7c5.2-26.1,9.5-52.6,15.9-78.3c2.1-8.4,4.4-16.7,6.2-25.1C423.1,217.1,426,208.1,421.4,204.6z M396.1,111.9c2.9,0.5,7.8,0.9,8.6,3.8c1.1,3.8,0,8.8-0.5,12.5c-0.6,5-1.6,9.9-2.1,14.8c-2.3,19.6,0.4,40.8-4.7,60.1c-1.4,0.4-2.6,1.4-3.4,2.7c-7.7,0.7-15.5,1.3-23.2,2.2c8.5-31.8,10.3-64.9,16.9-97.1C390.5,111.1,393.3,111.5,396.1,111.9z M344.3,89.7c-0.7-1.3-1.6-2.4-2.7-3.5c0.3-0.7,0.5-1.5,0.6-2.4c0.1-5.5,1-12.2,6.6-14.7c5.5-2.4,12.3-1.1,18-0.1c3.8,0.7,7.6,1.7,11.3,2.6c1.3,0.4,3.8,0.8,4.4,2.2c1.8,3.7,1.8,8.5,1.9,12.4c0.1,4.5-0.2,8.9-0.4,13.4c-0.4,0-0.8,0-1.2,0c-2.5,0-4.5,2.2-5,4.4c-7.5,33.7-9,68.6-18,102c-0.3,1.1-0.3,2.1,0,2.9c-9.6,0.8-19.3,1.3-28.6,3.5c12-19.7,8-45.3,11.5-67.2C345.5,127.9,353.8,106.5,344.3,89.7z M314.8,91.7c5-5.3,16.2-1.7,20,3.4c4.9,6.8,2.7,18.1,1.5,25.6c-1.4,9-4,17.8-4.9,26.9c-1.2,11.9-1.6,23.9-2.9,35.8c-0.9,8.5-2.7,16.9-7.1,24.3c-2,3.3,0,6.2,2.8,7.2c-8.8,3.9-15.6,10.7-21.8,18.4c-3.2,4-6.3,8.2-11.3,10c-1.4,0.5-2.8,0.7-4.3,0.8c0.2-31.2,9.3-61.3,15.1-91.7c2.5-13,3.4-26,5.1-39C307.9,106,309.4,97.4,314.8,91.7z M266,70.9c0.5-0.3,1-0.6,1.4-1.1c0.6-0.6,1.1-1.2,1.4-1.8c1.8-1.5,3.8-2.8,6.2-3.8c6.1-2.6,18-5.6,24-1.4c6,4.2,4.4,15.7,3.9,21.9c-0.1,1.4,0.2,2.5,0.8,3.5c-0.9,1.3-1.7,2.8-2.4,4.2c-3.7,7.7-4.9,16.6-5.7,25c-1.4,14.9-3.6,29.4-6.7,44.1c-5.7,27.1-12.6,54-13,81.9c-0.6-0.1-1.3-0.2-1.9-0.3c-5.4-0.7-10.8-0.8-16.2-0.9c0.3-0.7,0.5-1.5,0.6-2.3c1.2-28.9,0.4-57.8,1-86.7c0.2-10.3,0.5-20.4,0-30.6c-0.4-8.1-1-16.2-0.8-24.4C258.5,88.5,260.1,78.1,266,70.9z M231.4,53.4c2.4-2.7,11-1.9,14.6-1.9c4.4,0,8.9,0.3,13.3,0.6v9.7c0,0.3,0,0.5,0,0.7c-5.2,5.4-8.7,12.4-10.4,20.8c-2.1,10.4-1.8,21-1.2,31.7c-5.4,0.2-11,0.5-16.4,1.2c-0.4-20.5-4.2-40.7-5.5-61.1C227.5,55.6,229.7,55.3,231.4,53.4z M224.9,127.9c7.7-1.2,15.6-1.9,23.4-2.1c0.2,4,0.4,7.9,0.5,11.8c0.2,15.8-0.7,31.7-0.7,47.6c0,16.5,0,33-0.5,49.5c-0.1,2-0.1,4-0.2,6c0,0.6,0,1.1,0.2,1.6c-5.8,0.1-11.7,0.1-17.5-0.3c-1.6-0.1-3.1-0.2-4.7-0.4C225.1,203.7,222.5,165.7,224.9,127.9z M190.7,173.8c0-24.4-1.2-49.1,1.5-73.4c1.7-15.6,5.2-34.3,0.8-50.1c7.1-0.6,14.3-1.7,21.4-1.5c0.7,23,5.5,45.7,5.9,68.8c-0.3,0.1-0.6,0.1-0.9,0.2c-2.2,0.4-4.8,1.8-5,4.4c-2.8,39.2-0.3,78.4-0.1,117.6c-6.4-1.4-12.5-3.7-17.8-7.3c-1.6-18-5.8-35.6-10.6-53C188.3,179,190.7,177.1,190.7,173.8z M164.7,56.9c5.7-0.2,13.1-0.7,18.5,1.7c0.5,4.3,0.6,8.8,0.5,13.1c-0.2,10.3-1.7,20.6-2.8,30.8c-1.9,18.2-1.6,36.6-1.4,54.9c-7.5-26.6-14.2-53.2-12.9-81.2c0.1-1.9-0.7-3.3-1.8-4.1c-0.5-2.4-2.4-4.4-5.6-4c-3.3,0.4-6.7,0.6-10.1,0.8c-0.4-3.5-0.5-7.1-0.5-10.6C153.9,57.4,159.5,57.1,164.7,56.9z M141.9,80.3c1.5,0.7,3.3,0.5,4.9-0.3c3-0.1,6-0.2,8.8-0.4c-1.6,49.1,21.3,94.2,28.4,142c-4.5-4.2-9.2-8.2-15.2-10.7c-2.9-1.2-6-1.8-9.1-2c0-1-0.1-2-0.2-2.9c-0.6-6-1.7-11.9-2.8-17.8c-2.1-11.5-5.1-23.1-6.7-34.7c-2-14.6-0.9-30.1-6.3-44c-2.4-6-6.4-9.1-11.3-10.7c0.1-5.3-0.9-10.5-2.2-15.7C133.9,81.5,137.8,80.7,141.9,80.3z M125.1,108.5c5.8,0.4,7.6,2.1,9.4,7.5c4,12.3,3.2,25.8,4.8,38.5c1.2,9.8,3.8,19.6,5.7,29.4c1.1,5.7,2.1,11.3,3,17c0.3,2.2,0.6,4.5,0.8,6.7c0,0.4,0.1,0.8,0.1,1.2c-0.1,0.1-0.1,0.2-0.1,0.3c-8.1,0.4-16.2,1.5-24.3,1.8c-0.1,0-0.1,0-0.2,0c1-1.8,1.1-4.1-0.3-5.8c-0.2-0.8-0.3-1.4-0.5-2.1c-0.7-3.3-1.2-6.7-1.7-10c-1.1-7.2-2.1-14.5-3.2-21.8c-3.1-20.6-3.8-41.6-6.3-62.4C116.3,108.6,120.7,108.2,125.1,108.5z M80,147.2c6.2-1.1,12.4-1.9,18.7-2c0.9,0,1.7-0.2,2.3-0.5c0.5,0.1,1,0.1,1.5,0.1h1.9c0.9,10.1,1.9,20.1,3.4,30.1c1.2,8,2.3,16,3.6,24c0.5,3,0.7,8.7,2.7,12.2c-5.7-0.1-11.4-0.4-17-0.5c-1.9,0-3.9-0.1-5.8-0.2c0.3-0.6,0.4-1.3,0.5-2.1C92.8,187.1,81.9,167.9,80,147.2z M412.2,215.1c-0.6,3.6-1.5,7.1-2.3,10.7c-1.8,7.5-3.8,14.9-5.6,22.4c-6,25.2-10.3,50.9-15.3,76.3c-9,45.4-16.2,95.1-42.9,134.1c-0.2,0.2-0.3,0.5-0.4,0.7c-0.4,0.2-0.7,0.5-1.1,0.8c-4.1,3.7-12.5,3.8-17.6,4.3c-8.2,0.9-16.3,1.7-24.5,2.4c-20.6,1.7-41.3,4-62,4c-19.6,0-38.7-2.6-57.9-6.2c-13.3-2.5-27.5-5.2-39.8-11.3c0-0.1,0-0.3,0-0.4c-1.2-9-4.7-17.3-8.2-25.7c-4-9.6-6.7-19.5-9.6-29.5c-6-20.6-10.9-41.5-16.4-62.2c-10.1-38.2-23-75.6-29.3-114.7c4.1,0.6,8.5,0.4,11.5,0.5c9.5,0.5,19.1,0.4,28.6,0.7c7.6,0.2,15.3-0.7,22.8-1.4c7.2-0.6,16.1-2.2,22.9,0.7c8.2,3.4,14.1,10.9,20.7,16.8c0.4,3.1,3.1,4.5,5.6,4.4c10.1,6.6,22.7,8.9,34.5,10c14.8,1.5,29.7-0.6,44.4,1c11.3,1.2,22.6,3.6,32.1-4.2c9.4-7.6,14.1-19.1,25.6-24.2c12-5.3,25.8-3.7,38.5-5.6c8.3-1.2,16.7-1.9,25.1-2.6c1.3-0.1,2.6-0.2,3.8-0.3c2.3,2.7,7.5,2.8,9.1-0.9c0.2,0,0.3,0,0.5-0.1c2.3-0.3,4.8-0.8,7.2-1.2C412.3,214.8,412.3,214.9,412.2,215.1z"/></svg>