<svg xmlns="http://www.w3.org/2000/svg" fill="#FEBF10" viewBox="20.08 49.5 437.17 413.84" width="48px" height="48px"><path fill="#FEBF10" d="M330.7,187.7c-0.6-7.4-5.1-14.4-10.3-19.5c-6.8-6.8-27.5-19.9-31.6-3.4c0.8,1.7,0.9,3.7-0.5,5.6c0.4,4.8,2.4,9.5,4.2,13.9c2,4.8,5,11.6,1,16.2c-5.2,5.8-15.4,2.9-21.8,1.2c-8.2-2.1-17.2-8.4-26-7.1c-7.1,1.1,4.8,17.1,6.5,19.9c4.1,7,9.5,16.6,4.6,24.7c-8.5,14.1-30.6,5.8-42.9,2.5c-6.8-1.8-13.4-3.4-20.4-3.3c-7.9,0.2-19.8,5.6-20.4,14.4c2.4,1.8,3.5,5.1,1.6,7.3c3,8.7,6.7,18.4-2,25.1c-5.6,4.3-13.1,5.6-19.8,6.7c-9.6,1.6-32,1.4-30.8,15.5c0.2,2-0.6,3.6-1.8,4.5c1.3,0.5,2.4,1.5,3,3.1c0.1,0.2,0.2,0.4,0.2,0.6c0,0,0,0,0.1,0c0.5-0.2,1.1-0.3,1.6-0.6c1.4-0.6,2.7-1.3,4-2.1c3.7-2.1,7.4-4.3,11.3-6.2c9-4.4,18.6-7.2,27.8-11c5.8-2.4,10.7-4.7,14.6-9.8c3.1-4.1,5.3-8.8,7.5-13.4c3.1-6.6,6.2-13.6,11.7-18.6c6.2-5.7,14.6-7.5,22.8-6c6.1,1.1,11.8,3.7,17.6,5.9c5.4,2,12.3,4.5,18,2.6c11.2-3.7,10.4-17.4,13.4-26.9c3-9.3,8.9-16.4,18.2-19.7c8.3-3,17.3-3.2,25.6-6.2C324.5,201.3,331.3,195.7,330.7,187.7z"/><path fill="#EF4823" d="M246.5 227c-2.1-4.8-5.2-9.2-8-13.8-5.4 7.3-12.7 13.7-20.6 18.3 7.3 2 15.3 4.6 22.9 4.5C247.1 235.8 249.4 233.4 246.5 227zM165.7 266.5c-4.2 3.3-8 7.1-12.1 10.7-1.8 1.6-3.7 3.1-5.8 4.5.2 0 .4-.1.6-.1 4.2-.6 8.4-1.2 12.4-2.5 1.4-.5 2.9-.9 4.1-1.7.9-.6 2.2-1.7 2.2-1.7C167.7 272.6 166.8 269.6 165.7 266.5z"/><path fill="#C56528" d="M288.9 99.3c-16.9 8.4-27.6 23.4-37.8 38.7-6.9 10.3-13.6 20.9-22.4 29.7-9.7 9.6-20.8 18.1-32.1 25.5-21.3 14-44.4 23.3-67.4 34-31.3 14.5-77 39.6-76.8 79.2 3.5-1.1 7-2.1 10.6-3.1 10.2-2.7 20.1-6 30-9.3 14.6-4.8 28.8-10.6 42.3-17.9 3.5-1.9 7.1-3.6 10-6.2 2.3-2.1 4.6-4.3 6.9-6.4 3.2-3 6.5-5.8 10.1-8.3-.3-5.7 2.1-11.7 5.6-16.1 9.4-11.7 22.9-12.9 36.2-10.8.4-1.5 1.4-2.8 3.2-3.6 9.9-4.4 20.3-13.1 25.4-22.8.1-.3.3-.5.5-.7-.1-.5-.3-1.1-.4-1.7-2-9.9 6-16.4 15.3-16 3.6.1 6.9.9 10.2 1.9.2-.4.4-.8.7-1.1 5.5-6.7 12.7-11.7 18.5-18.1.3-4.9 2-9.6 6.2-13.9 5.8-6 13.1-7.3 20.3-6-.4-1.8.3-3.7 2.5-4.9 1.7-.9 3.2-2 4.9-3 1.8-1.1 2.1-2 3.2-3.8 4-6.3 8.8-11.9 13.2-17.9 3.8-5.2 5.6-11.1 7-17.4 0-.2.1-.4.1-.7C321.5 89.1 303.1 92.3 288.9 99.3zM416.8 153.8c-1.6-3.7-3.7-8.6-6.9-11.7-1.7 6.3-3.8 12.6-6 18.9 5.1-.4 10.4-.3 15.6.6C418.7 158.5 417.5 155.5 416.8 153.8z"/><path fill="#EF4823" d="M279.5,179.6c-3.5,3.2-7.2,6.3-10.4,9.8c2,0.7,4.1,1.4,6.2,1.9c2.2,0.5,6.3,1.5,8.8,1.6C282.7,188.6,280.9,184.1,279.5,179.6z"/><path fill="#EF4823" d="M402.9,103.1c-1.9-14-7.1-31.9-19.5-40.2c-5.2-3.5-11.7-3.2-17-0.1c-9.9,5.8-15.1,14.2-17.8,25.2c-2.9,11.7-4.2,24.5-11.5,34.5c-4.2,5.7-9,11-12.7,17c-1.8,2.9-2.7,5.4-5.7,7.2c-1.6,1-3.2,2-4.8,3c4.3,2.2,8.3,5,11.5,8c11.6,10.7,21.9,28.5,12.4,43.7c-5.1,8.1-13.6,12.4-22.6,14.4c-7.9,1.8-17.7,2.1-24.4,7.1c-8.1,6.1-7.6,17.7-10.5,26.5c-3.9,11.7-12.3,18.9-25.1,18.7c-12.4-0.3-22.6-8.5-34.7-9.5c-6.7-0.5-11.7,2.9-15,8.5c-8.3,13.9-12.4,30-28.5,37c-13.3,5.8-27,9.6-39.6,16.9c-8.5,4.9-19.5,9.9-24.4-2.3c-1-2.5-0.1-4.6,1.6-5.9c-1.7-0.6-3.1-2.1-3.4-4.5c-0.3-3.7,0.1-6.9,1.1-9.6c-10.8,4.3-22,8.2-33.1,11.5c-9.7,2.9-19.7,4.9-29.1,8.7c-8.2,3.3-17.4,8.7-18.8,18.3c-1.3,9.2,5.6,16.3,12.5,21.1c7,4.9,16.2,9.9,24.7,11.8c8.8,1.9,17.8,3.9,26.8,4.2c8.3,0.3,18.8,0.2,24.3-7.1c2-2.7,5-2.5,7-0.8c3.7-14.1,11.6-26.5,23-36.3c28.3-24.3,67-30.3,100-45.6c24.7-11.4,45.6-30.3,63.5-50.4c16.6-18.5,30.4-40.1,49.8-55.9c8.5-6.9,18.4-12.2,28.8-15.1C398.6,143.8,405.8,123.7,402.9,103.1z"/><path fill="#C56528" d="M443.4,194.4c-2.8-8.5-7.9-14.9-15.1-18.7c-0.2,0.3-0.4,0.6-0.6,0.9c-3.4,4.7-9.5,0.7-9.4-4.1c-0.4-0.1-0.8-0.1-1.3-0.2c-6-0.8-11.7-0.6-17.2,0.4c-0.3,0.9-0.6,1.9-0.9,2.8c-0.9,2.8-3.2,5-6.4,4.3c-1.6-0.3-3-1.2-4.5-1.5c-1-0.2-1.8-0.6-2.5-1.2c-9.6,4.4-18.3,11.1-26,19.1c-17.9,18.6-32.3,40.2-50.8,58.3c-18.1,17.9-38.6,33.4-62.2,43.2c-17.2,7.1-35.2,12.5-52.4,19.5c-16.2,6.6-33.1,14.7-44.7,28.3c-12,14-16.6,33-13.4,51.1c2.9,16.4,13.6,30.2,27.8,38.5c24.4,14.3,57.7,18,85.3,9c0.4-1.5,1.4-2.8,3.1-3.6c40.6-18.1,81.6-37.4,116.4-65.4c16.9-13.6,32.5-29.4,44.1-47.9c8.7-13.8,15-28.8,20.2-44.3c4.9-14.8,9-30,11.4-45.4C446.5,223.7,447.9,208.2,443.4,194.4z"/><path fill="#C56528" d="M139.1,428.6c-11.8-14.1-16.4-32.3-14.7-50.5c-10.8,9.5-28.9,8-42.1,6c-11.5-1.8-23.4-4.8-34-10c2.3,5.4,4.9,10.6,8.2,15.5c5.3,8.1,11.7,14.3,19.4,20.1c14,10.5,29.6,18.7,46,24.6c11.5,4.1,23.3,7.1,35.1,9.8C150.4,440,144.3,434.8,139.1,428.6z"/><path fill="#010101" d="M452.4,187.1c-4.2-10.4-11.8-18.1-21.6-22.3c-0.2-4.2-1.4-8.5-2.7-12.4c-2.8-8.1-7.7-17.4-15.4-21.8c1.8-9.3,2.5-18.7,1.3-28.4c-2.1-16.4-8.3-34.9-21.2-46.1c-15.2-13.2-33.2-4.6-45.3,8.2c-5.6,5.9-8.2,14.4-10.1,22.8c-18.1-10-40.9-4.8-58.5,5.1c-22,12.5-33.4,36.1-47.9,55.8c-16,21.6-40,37.2-63.5,49.6c-20,10.6-41.5,18.1-61.4,28.9c-31.2,16.9-67.4,44.6-64.5,84.2c-2.4,1.1-4.7,2.4-6.9,3.8c-8.3,5.4-14.2,14.3-14.6,24.3c-0.4,9.7,5,17.9,11.8,24.2c0.8,0.7,1.5,1.4,2.3,2c-0.3,0.9-0.2,2,0.2,3.2c6.4,18.7,16.2,35.3,31.7,47.8c14.9,11.9,31.7,21,49.5,27.7c17.7,6.6,36.1,10.5,54.5,14.6c18.5,4.1,38.9,8,57.3,1.8c0.7-0.2,1.2-0.5,1.7-0.9c2.7-0.3,5.4-0.6,8.1-1c11.2-1.8,22-5.3,32-10.7c1.6-0.9,2.4-2.2,2.6-3.5c38.8-17.7,77.2-37.3,109.7-65c18.1-15.4,33.8-33.3,45.6-53.9c8.4-14.8,14.1-31,19.1-47.2c4.7-15.2,8.4-30.8,10.1-46.6C457.9,216.7,458,201,452.4,187.1z M409.9,142.1c3.2,3,5.3,8,6.9,11.7c0.7,1.7,2,4.7,2.7,7.8c-5.2-0.9-10.4-1-15.6-0.6C406.1,154.8,408.2,148.5,409.9,142.1z M129.2,227.2c23-10.6,46.1-20,67.4-34c11.3-7.5,22.5-16,32.1-25.5c8.8-8.7,15.6-19.4,22.4-29.7c10.2-15.3,20.9-30.4,37.8-38.7c14.1-7,32.6-10.3,46-0.7c0,0.2-0.1,0.4-0.1,0.7c-1.4,6.3-3.2,12.2-7,17.4c-4.4,6-9.2,11.6-13.2,17.9c-1.2,1.8-1.5,2.7-3.2,3.8c-1.6,1-3.2,2.1-4.9,3c-2.2,1.2-2.9,3.1-2.5,4.9c-7.2-1.4-14.5-0.1-20.3,6c-4.2,4.4-5.9,9.1-6.2,13.9c-5.8,6.4-13,11.4-18.5,18.1c-0.3,0.4-0.6,0.8-0.7,1.1c-3.3-1-6.6-1.8-10.2-1.9c-9.3-0.3-17.3,6.2-15.3,16c0.1,0.6,0.3,1.1,0.4,1.7c-0.2,0.2-0.3,0.5-0.5,0.7c-5.1,9.7-15.5,18.3-25.4,22.8c-1.7,0.8-2.7,2.1-3.2,3.6c-13.3-2-26.8-0.9-36.2,10.8c-3.5,4.4-5.9,10.4-5.6,16.1c-3.6,2.5-6.9,5.4-10.1,8.3c-2.3,2.1-4.6,4.3-6.9,6.4c-2.9,2.7-6.5,4.4-10,6.2c-13.5,7.3-27.8,13.1-42.3,17.9c-10,3.3-19.9,6.5-30,9.3c-3.5,0.9-7.1,1.9-10.6,3.1C52.2,266.8,97.9,241.7,129.2,227.2z M122.2,307.6c-1.3-14.1,21.1-14,30.8-15.5c6.8-1.1,14.3-2.4,19.8-6.7c8.6-6.6,5-16.4,2-25.1c1.9-2.3,0.8-5.6-1.6-7.3c0.6-8.9,12.5-14.3,20.4-14.4c7.1-0.2,13.6,1.5,20.4,3.3c12.3,3.2,34.4,11.6,42.9-2.5c4.9-8-0.5-17.7-4.6-24.7c-1.7-2.8-13.6-18.9-6.5-19.9c8.7-1.3,17.8,5,26,7.1c6.4,1.7,16.6,4.6,21.8-1.2c4.1-4.6,1-11.4-1-16.2c-1.8-4.4-3.9-9.1-4.2-13.9c1.4-1.9,1.3-4,0.5-5.6c4.1-16.5,24.7-3.4,31.6,3.4c5.2,5.1,9.6,12.1,10.3,19.5c0.7,8-6.2,13.6-13,16.1c-8.3,3-17.3,3.3-25.6,6.2c-9.3,3.3-15.2,10.4-18.2,19.7c-3,9.5-2.2,23.2-13.4,26.9c-5.8,1.9-12.7-0.7-18-2.6c-5.8-2.1-11.5-4.8-17.6-5.9c-8.3-1.5-16.6,0.2-22.8,6c-5.4,5-8.6,12-11.7,18.6c-2.2,4.6-4.4,9.3-7.5,13.4c-3.9,5.1-8.7,7.5-14.6,9.8c-9.3,3.7-18.8,6.6-27.8,11c-3.9,1.9-7.6,4.1-11.3,6.2c-1.3,0.8-2.6,1.5-4,2.1c-0.5,0.2-1.1,0.4-1.6,0.6c0,0-0.1,0-0.1,0c0-0.2-0.1-0.3-0.2-0.6c-0.6-1.6-1.8-2.6-3-3.1C121.6,311.1,122.3,309.6,122.2,307.6z M147.8,281.7c2-1.4,3.9-2.9,5.8-4.5c4.1-3.6,7.9-7.4,12.1-10.7c1.2,3,2.1,6.1,1.5,9.2c0,0-1.3,1.1-2.2,1.7c-1.3,0.8-2.7,1.3-4.1,1.7c-4,1.3-8.3,1.9-12.4,2.5C148.2,281.7,148,281.7,147.8,281.7z M218,231.5c7.9-4.7,15.2-11,20.6-18.3c2.8,4.6,5.8,9,8,13.8c2.9,6.5,0.6,8.8-5.6,9C233.3,236.1,225.3,233.5,218,231.5z M269.1,189.4c3.2-3.5,6.9-6.6,10.4-9.8c1.4,4.5,3.2,9,4.6,13.3c-2.5-0.1-6.6-1.1-8.8-1.6C273.2,190.8,271.2,190.1,269.1,189.4z M31.2,337.3c1.4-9.7,10.6-15,18.8-18.3c9.4-3.8,19.4-5.8,29.1-8.7c11.1-3.3,22.3-7.2,33.1-11.5c-1,2.7-1.4,5.8-1.1,9.6c0.2,2.4,1.6,3.9,3.4,4.5c-1.7,1.2-2.6,3.3-1.6,5.9c4.9,12.2,15.9,7.1,24.4,2.3c12.6-7.2,26.4-11.1,39.6-16.9c16.2-7,20.3-23.1,28.5-37c3.3-5.6,8.3-9.1,15-8.5c12.1,0.9,22.4,9.2,34.7,9.5c12.8,0.3,21.2-7,25.1-18.7c2.9-8.8,2.3-20.4,10.5-26.5c6.7-5,16.5-5.3,24.4-7.1c9.1-2,17.6-6.3,22.6-14.4c9.5-15.2-0.8-33-12.4-43.7c-3.3-3-7.3-5.9-11.5-8c1.6-1,3.2-2,4.8-3c3-1.8,3.9-4.3,5.7-7.2c3.7-6,8.5-11.3,12.7-17c7.3-10,8.6-22.8,11.5-34.5c2.7-11,7.9-19.4,17.8-25.2c5.3-3.1,11.8-3.4,17,0.1c12.4,8.3,17.6,26.3,19.5,40.2c2.8,20.6-4.4,40.7-11.2,60.1c-10.5,2.9-20.3,8.2-28.8,15.1c-19.4,15.8-33.2,37.4-49.8,55.9c-18,20.1-38.9,39-63.5,50.4c-33,15.3-71.7,21.3-100,45.6c-11.4,9.7-19.3,22.1-23,36.3c-2.1-1.6-5-1.9-7,0.8c-5.5,7.3-15.9,7.4-24.3,7.1c-9-0.3-18-2.3-26.8-4.2c-8.5-1.9-17.6-6.8-24.7-11.8C36.8,353.6,29.8,346.5,31.2,337.3z M122,434.4c-16.4-5.9-32-14.1-46-24.6c-7.7-5.8-14.1-12-19.4-20.1c-3.2-4.9-5.9-10.1-8.2-15.5c10.7,5.2,22.5,8.2,34,10c13.1,2,31.3,3.5,42.1-6c-1.7,18.2,2.9,36.4,14.7,50.5c5.2,6.2,11.2,11.3,17.9,15.6C145.2,441.5,133.4,438.5,122,434.4z M444.3,237.8c-2.4,15.4-6.5,30.6-11.4,45.4c-5.1,15.5-11.4,30.5-20.2,44.3c-11.6,18.4-27.2,34.3-44.1,47.9c-34.8,28-75.9,47.3-116.4,65.4c-1.7,0.8-2.7,2.1-3.1,3.6c-27.6,9-60.9,5.3-85.3-9c-14.2-8.4-24.9-22.1-27.8-38.5c-3.2-18.1,1.4-37.1,13.4-51.1c11.6-13.5,28.5-21.7,44.7-28.3c17.3-7.1,35.2-12.4,52.4-19.5c23.7-9.8,44.1-25.3,62.2-43.2c18.4-18.2,32.9-39.7,50.8-58.3c7.7-8,16.4-14.8,26-19.1c0.6,0.5,1.5,1,2.5,1.2c1.5,0.3,2.9,1.2,4.5,1.5c3.2,0.7,5.5-1.5,6.4-4.3c0.3-0.9,0.6-1.9,0.9-2.8c5.5-1,11.2-1.2,17.2-0.4c0.4,0.1,0.8,0.1,1.3,0.2c-0.1,4.8,6,8.8,9.4,4.1c0.2-0.3,0.4-0.6,0.6-0.9c7.2,3.7,12.3,10.2,15.1,18.7C447.9,208.2,446.5,223.7,444.3,237.8z"/></svg>