<svg xmlns="http://www.w3.org/2000/svg" fill="#010101" viewBox="5.41 6.58 38.24 33.37" width="48px" height="48px"><path fill="#ed2224" d="M29.47,15.56c-0.31,0.63-0.68,0.9-1.72,1.34c-1.97,0.83-3.6,0.71-5.65,0.06 c-0.78-0.25-1.15-0.6-1.48-1c-0.17-0.19-0.22-0.44-0.28-0.68c-0.06-0.27-0.06-0.75-0.03-1.23c0.03-0.47,0.08-0.94,0.14-1.22 c0.08-0.4,0.2-0.8,0.34-1.19c0.07-0.19,0.14-0.38,0.22-0.57c0.03-0.07,0.05-0.14,0.08-0.21c0.05-0.12,0.11-0.24,0.16-0.36 c0.09-0.21,0.19-0.42,0.28-0.62c0.37-0.79,1.13-1.52,1.8-2.06c0.68-0.55,1.31-0.89,2.15-0.67c0.89,0.22,1.55,0.97,2.07,1.73 c0.93,1.38,1.64,2.68,1.97,4.31c0.01,0.02,0.04,0.17,0.07,0.4C29.66,14.12,29.72,15.04,29.47,15.56z"/><path fill="#ef4754" d="M42.95,20.31c-0.05,0.61-0.64,0.79-0.83,0.87c-0.1,0.04-0.2,0.08-0.3,0.12 c-0.16,0.06-0.31,0.1-0.47,0.15c-0.04,0.01-0.08,0.02-0.13,0.03c-0.03,0.01-0.06,0.01-0.09,0.02c-0.08,0.02-0.17,0.04-0.25,0.05 c-0.02,0-0.05,0.01-0.09,0.01c-0.58,0.04-2.96-0.03-3.25-0.07c-0.04,0-0.08-0.01-0.12-0.01c-0.06,0-0.12,0.01-0.17,0.03 c-0.03,0-0.05,0.01-0.08,0.03c0,0-0.02,0-0.03,0.01c-0.06,0.01-0.11,0.05-0.16,0.09c-0.05,0.03-0.09,0.07-0.14,0.13 c-0.04,0.04-0.08,0.09-0.12,0.15c-0.04,0.05-0.07,0.12-0.1,0.18c-0.12,0.24-0.2,0.52-0.26,0.75c-0.29,1.17-0.23,1.36-0.19,2.55 c0.02,0.75,0.16,1.49,0.16,2.24c0.01,0.74-0.11,1.48-0.35,2.17c-0.05,0.12-0.09,0.24-0.18,0.34c-0.19,0.21-0.5,0.24-0.78,0.25 c-0.36,0.02-0.75,0.03-1.08-0.12c-0.44-0.2-0.71-0.65-0.81-1.12c-0.11-0.47-0.07-0.95-0.03-1.43c0.15-1.92-0.06-2.85,0.02-4.78 c0.01-0.33,0.12-0.95-0.05-1.25c-0.09-0.16-0.27-0.19-0.46-0.19c-0.15,0-0.3,0.02-0.43,0.02c-0.26-0.01-0.44,0.06-0.68,0.09 c-0.26,0.04-0.54-0.07-0.77,0.11c-0.09,0.06-0.14,0.16-0.19,0.25c-0.69,1.31-0.1,3.22-0.79,4.53c-0.23,0.44-0.85,0.64-1.35,0.58 c-0.19-0.02-0.36-0.1-0.52-0.22c-0.33-0.26-0.53-0.66-0.63-1.07s-0.11-0.84-0.11-1.26c-0.01-0.48-0.02-0.96-0.02-1.44 c-0.01-0.29-0.02-0.59-0.13-0.86c-0.13-0.27-0.48-0.69-0.78-0.78c-0.03-0.01-0.07-0.02-0.1-0.02c-0.01,0-0.01-0.01-0.02,0 c-0.31-0.06-0.7-0.03-1.05-0.01c-0.02,0.01-0.03,0.01-0.04,0.01c-1.1-0.01-2.2-0.02-3.3-0.03c-0.59-0.01-1.18-0.01-1.77-0.02 c-1.8-0.02-3.59-0.03-5.39-0.05c-0.05,0-0.12,0-0.19,0.01c-0.04,0-0.07,0.01-0.11,0.01c-0.1,0.01-0.2,0.02-0.31,0.03 c-0.21,0.02-0.34,0.02-0.57-0.01l-0.34-0.06c-0.44-0.03-0.55-0.24-0.83-0.64c-0.21-0.28-0.23-0.66-0.14-0.99 c0.1-0.34,0.48-0.67,0.7-0.93c0.57-0.68,1.19-1.08,2-1.43c0.46-0.19,1.1-0.65,1.54-0.88c1.54-0.77,2.35-1.26,4.02-2.4 c-0.03,0.48-0.03,0.96,0.03,1.23c0.06,0.24,0.11,0.49,0.28,0.68c0.33,0.4,0.7,0.75,1.48,1c2.05,0.65,3.68,0.77,5.65-0.06 c1.04-0.44,1.41-0.71,1.72-1.34c0.25-0.52,0.19-1.44,0.12-1.97l0.09-0.01c0.49,0.2,1.61,0.61,2.48,1c2,0.89,4.22,1.98,5.32,2.5 c0.54,0.25,1.08,0.51,1.61,0.77c0.58,0.28,1.16,0.57,1.73,0.86c0.07,0.04,0.15,0.07,0.23,0.11c0.07,0.03,0.15,0.07,0.23,0.1 c0.09,0.04,0.2,0.08,0.3,0.13c0.19,0.08,0.38,0.17,0.56,0.26c0.02,0.01,0.03,0.01,0.04,0.02c0.16,0.08,0.3,0.17,0.44,0.28 c0.07,0.06,0.13,0.11,0.19,0.19C42.95,19.94,42.96,20.25,42.95,20.31z"/><path fill="#fcbf95" d="M43.01,30.77c-0.04,1.02-0.04,1.83-0.05,2.62h-0.32c-1.28,1.07-3.34,0.42-5.12,0.31 c-4.51-0.3-8.33,0.18-12.26,0.13c-3.45-0.05-6.31-0.45-9.75-0.29c-0.76,0.04-1.62,0.04-2.14-0.43c-0.43-0.4-0.48-1.74-0.5-2.29 c-0.11-2.71-0.25-3.63,0.14-6.42c0.04-0.31,0.03-2.27,0.35-3.01v-0.01c0.23,0.03,0.36,0.03,0.57,0.01 c0.11-0.01,0.21-0.02,0.31-0.03c0.04,0,0.07-0.01,0.11-0.01c0.07-0.01,0.14-0.01,0.19-0.01c1.8,0.02,3.59,0.03,5.39,0.05 c0.59,0.01,1.18,0.01,1.77,0.02c1.1,0.01,2.2,0.02,3.3,0.03c0.01,0,0.02,0,0.04-0.01c0.35-0.02,0.74-0.05,1.05,0.01 c0.01-0.01,0.01,0,0.02,0c0.03,0,0.07,0.01,0.1,0.02c0.3,0.09,0.65,0.51,0.78,0.78c0.11,0.27,0.12,0.57,0.13,0.86 c0,0.48,0.01,0.96,0.02,1.44c0,0.42,0.01,0.85,0.11,1.26s0.3,0.81,0.63,1.07c0.16,0.12,0.33,0.2,0.52,0.22 c0.5,0.06,1.12-0.14,1.35-0.58c0.69-1.31,0.1-3.22,0.79-4.53c0.05-0.09,0.1-0.19,0.19-0.25c0.23-0.18,0.51-0.07,0.77-0.11 c0.24-0.03,0.42-0.1,0.68-0.09c0.13,0,0.28-0.02,0.43-0.02c0.19,0,0.37,0.03,0.46,0.19c0.17,0.3,0.06,0.92,0.05,1.25 c-0.08,1.93,0.13,2.86-0.02,4.78c-0.04,0.48-0.08,0.96,0.03,1.43c0.1,0.47,0.37,0.92,0.81,1.12c0.33,0.15,0.72,0.14,1.08,0.12 c0.28-0.01,0.59-0.04,0.78-0.25c0.09-0.1,0.13-0.22,0.18-0.34c0.24-0.69,0.36-1.43,0.35-2.17c0-0.75-0.14-1.49-0.16-2.24 c-0.04-1.19-0.1-1.38,0.19-2.55c0.06-0.23,0.14-0.51,0.26-0.75c0.03-0.06,0.06-0.13,0.1-0.18c0.04-0.06,0.08-0.11,0.12-0.15 c0.05-0.06,0.09-0.1,0.14-0.13c0.05-0.04,0.1-0.08,0.16-0.09c0.01-0.01,0.03-0.01,0.03-0.01c0.03-0.02,0.05-0.03,0.08-0.03 c0.05-0.02,0.11-0.03,0.17-0.03c0.04,0,0.08,0.01,0.12,0.01c0.29,0.04,2.67,0.11,3.25,0.07c0.04,0,0.07-0.01,0.09-0.01 c0.08-0.01,0.17-0.03,0.25-0.05c0.03-0.01,0.06-0.01,0.09-0.02c0.05-0.01,0.09-0.02,0.13-0.03c0.16-0.05,0.31-0.09,0.47-0.15 c0.1-0.04,0.2-0.08,0.3-0.12c0.19-0.08,0.78-0.26,0.83-0.87h0.01C43.27,24.18,43.16,27.4,43.01,30.77z"/><path fill="#c56528" d="M42.85,36.14c-0.16,1.35-0.21,2.34-1.21,2.9c-1.21,0.68-3.53,0.28-3.91,0.31 c-5.16,0.41-7.97-0.52-13.14-0.28c-1.49,0.07-2.99,0.21-4.48,0.16c-1.93-0.07-8-0.16-9.77-0.14c-1.72,0.02-2.51-0.48-3.09-1.01 c-0.77-0.71-0.94-2.5-0.99-3.55C6,29.59,5.75,26.02,6.05,21.08c0.03-0.41,0.06-0.82,0.22-1.2c0.33-0.74,1.09-1.15,1.77-1.59 c1.12-0.72,2.12-1.61,3.18-2.41c1.03-0.78,2.12-1.46,3.21-2.14c1.13-0.71,2.26-1.41,3.38-2.11c1.03-0.65,1.92-1.13,3.28-0.77 c-0.03,0.07-0.05,0.14-0.08,0.21c-0.08,0.19-0.15,0.38-0.22,0.57c-0.14,0.39-0.26,0.79-0.34,1.19c-0.06,0.28-0.11,0.75-0.14,1.22 c-1.67,1.14-2.48,1.63-4.02,2.4c-0.44,0.23-1.08,0.69-1.54,0.88c-0.81,0.35-1.43,0.75-2,1.43c-0.22,0.26-0.6,0.59-0.7,0.93 c-0.09,0.33-0.07,0.71,0.14,0.99c0.28,0.4,0.39,0.61,0.83,0.64l0.34,0.06v0.01c-0.32,0.74-0.31,2.7-0.35,3.01 c-0.39,2.79-0.25,3.71-0.14,6.42c0.02,0.55,0.07,1.89,0.5,2.29c0.52,0.47,1.38,0.47,2.14,0.43c3.44-0.16,6.3,0.24,9.75,0.29 c3.93,0.05,7.75-0.43,12.26-0.13c1.78,0.11,3.84,0.76,5.12-0.31h0.35C43,34.19,42.98,34.97,42.85,36.14z"/><path d="M21.926,14.632c-0.003,0.069,0.012,0.133,0.043,0.193c0.02,0.062,0.055,0.116,0.103,0.161 c0.087,0.087,0.229,0.152,0.354,0.146c0.129-0.006,0.263-0.048,0.354-0.146c0.084-0.092,0.16-0.224,0.146-0.354 c-0.007-0.066-0.002-0.131,0.002-0.197c0.011-0.058,0.027-0.116,0.047-0.172c0.031-0.063,0.063-0.126,0.106-0.183 c0.037-0.057,0.056-0.119,0.059-0.186c0.015-0.066,0.012-0.133-0.009-0.199c-0.032-0.116-0.122-0.242-0.23-0.299 c-0.116-0.061-0.257-0.092-0.385-0.05c-0.04,0.017-0.08,0.034-0.119,0.05c-0.075,0.044-0.135,0.104-0.179,0.179 c-0.044,0.059-0.083,0.121-0.115,0.187c-0.049,0.1-0.094,0.205-0.123,0.313c-0.03,0.107-0.044,0.22-0.054,0.33 C21.918,14.481,21.918,14.557,21.926,14.632z"/><path d="M24.853,14.979c0.057,0.037,0.119,0.056,0.186,0.059c0.066,0.015,0.133,0.012,0.199-0.009 c0.121-0.039,0.238-0.114,0.299-0.23c0.063-0.12,0.085-0.252,0.05-0.385c-0.012-0.047-0.02-0.095-0.028-0.143 c-0.016-0.149-0.019-0.299,0.001-0.448c-0.005,0.034-0.009,0.068-0.014,0.102c0.02-0.065,0.023-0.131,0.009-0.196 c-0.003-0.067-0.023-0.129-0.059-0.186c-0.061-0.104-0.18-0.203-0.299-0.23c-0.128-0.029-0.272-0.023-0.385,0.05 c-0.034,0.026-0.067,0.052-0.101,0.078c-0.062,0.062-0.105,0.136-0.129,0.221c-0.025,0.17-0.045,0.339-0.036,0.511 c0.009,0.17,0.034,0.342,0.077,0.507C24.655,14.801,24.746,14.917,24.853,14.979z"/><path d="M27.035,13.968c0.09,0.114,0.18,0.227,0.271,0.341c0.045,0.049,0.099,0.083,0.161,0.103c0.06,0.031,0.124,0.046,0.193,0.043 c0.069,0.003,0.133-0.012,0.193-0.043c0.062-0.02,0.116-0.055,0.161-0.103c0.026-0.034,0.052-0.067,0.078-0.101 c0.045-0.078,0.068-0.162,0.068-0.252c-0.006-0.044-0.012-0.089-0.018-0.133c-0.024-0.085-0.067-0.158-0.129-0.221 c-0.09-0.114-0.18-0.227-0.271-0.341c-0.045-0.049-0.099-0.083-0.161-0.103c-0.06-0.031-0.124-0.046-0.193-0.043 c-0.069-0.003-0.133,0.012-0.193,0.043c-0.062,0.02-0.116,0.055-0.161,0.103c-0.026,0.034-0.052,0.067-0.078,0.101 c-0.045,0.078-0.068,0.162-0.068,0.252c0.006,0.044,0.012,0.089,0.018,0.133C26.931,13.832,26.973,13.905,27.035,13.968z"/><path d="M22.979,11.312c0.045,0.069,0.096,0.136,0.153,0.196c0.015,0.016,0.032,0.031,0.049,0.046 c0.048,0.04,0.098,0.079,0.149,0.115c0.057,0.036,0.119,0.056,0.186,0.059c0.066,0.015,0.133,0.012,0.199-0.009 c0.065-0.015,0.122-0.045,0.17-0.089c0.054-0.035,0.097-0.082,0.129-0.14c0.017-0.04,0.034-0.08,0.05-0.119 c0.024-0.089,0.024-0.177,0-0.266c-0.017-0.04-0.034-0.08-0.05-0.119c-0.037-0.063-0.092-0.109-0.151-0.151 c-0.002-0.003-0.003-0.007-0.006-0.01c0.018,0.014,0.035,0.027,0.053,0.041c-0.026-0.02-0.047-0.046-0.07-0.07 c-0.007-0.012-0.014-0.023-0.021-0.035c-0.007-0.022-0.016-0.044-0.02-0.067c-0.016-0.065-0.045-0.122-0.09-0.17 c-0.035-0.054-0.082-0.097-0.14-0.129c-0.057-0.037-0.119-0.056-0.186-0.059c-0.066-0.015-0.133-0.012-0.199,0.009 c-0.04,0.017-0.08,0.034-0.119,0.05c-0.075,0.044-0.135,0.104-0.179,0.179c-0.017,0.04-0.034,0.08-0.05,0.119 c-0.024,0.089-0.024,0.177,0,0.266c0.008,0.043,0.02,0.085,0.036,0.125C22.903,11.16,22.933,11.241,22.979,11.312z M23.85,10.82 c-0.004-0.003-0.006-0.008-0.01-0.01c0.002,0.001,0.004,0.003,0.006,0.005C23.847,10.816,23.849,10.818,23.85,10.82z"/><path d="M25.483,10.898c0.134,0.138,0.268,0.276,0.402,0.413c0.045,0.049,0.099,0.083,0.161,0.103 c0.06,0.031,0.124,0.046,0.193,0.043c0.069,0.003,0.133-0.012,0.193-0.043c0.062-0.02,0.116-0.055,0.161-0.103 c0.026-0.034,0.052-0.067,0.078-0.101c0.045-0.078,0.068-0.162,0.068-0.252c-0.006-0.044-0.012-0.089-0.018-0.133 c-0.024-0.085-0.067-0.158-0.129-0.221c-0.134-0.138-0.268-0.276-0.402-0.413c-0.045-0.049-0.099-0.083-0.161-0.103 c-0.06-0.031-0.124-0.046-0.193-0.043c-0.069-0.003-0.133,0.012-0.193,0.043c-0.062,0.02-0.116,0.055-0.161,0.103 c-0.026,0.034-0.052,0.067-0.078,0.101c-0.045,0.078-0.068,0.162-0.068,0.252c0.006,0.044,0.012,0.089,0.018,0.133 C25.378,10.763,25.421,10.836,25.483,10.898z"/><path d="M43.626,23.354c-0.029-0.982-0.087-1.962-0.161-2.941c0.045-0.261-0.007-0.548-0.223-0.865 c-0.374-0.549-1.102-0.797-1.683-1.049c-0.821-0.356-1.611-0.787-2.416-1.178c-2.998-1.457-6.012-2.838-9.087-4.118 c-0.211-1.095-0.672-2.181-1.121-3.018c-1.003-1.872-2.908-4.689-5.353-3.164c-1.044,0.651-2.031,1.641-2.553,2.759 c-0.081,0.174-0.16,0.352-0.239,0.529c-1.33-0.173-2.398,0.376-3.555,1.09c-1.149,0.708-2.307,1.403-3.443,2.133 c-2.077,1.334-3.93,2.986-6.003,4.327c-0.638,0.413-1.339,0.805-1.77,1.454c-0.485,0.732-0.463,1.654-0.508,2.497 c-0.1,1.891-0.121,3.784-0.076,5.676c0.044,1.869,0.146,3.737,0.245,5.604c0.078,1.475,0.033,3.096,0.64,4.475 c1.028,2.338,3.951,2.013,6.055,2.031c2.475,0.02,4.951,0.051,7.425,0.127c1.879,0.057,3.743-0.139,5.62-0.183 c1.732-0.041,3.459,0.06,5.185,0.192c1.653,0.126,3.307,0.245,4.966,0.22c0.775-0.012,1.56-0.121,2.333-0.1 c0.572,0.016,1.138,0.094,1.711,0.089c1.261-0.011,2.68-0.282,3.274-1.534c0.293-0.616,0.349-1.311,0.424-1.98 c0.092-0.82,0.163-1.639,0.172-2.464C43.528,30.428,43.732,26.888,43.626,23.354z M42.5,31.009c-0.023,0.633-0.018,1.267-0.015,1.9 c-0.031,0.015-0.061,0.021-0.093,0.045c-1.056,0.815-2.472,0.526-3.698,0.367c-1.489-0.193-2.993-0.229-4.494-0.223 c-2.839,0.01-5.672,0.248-8.511,0.236c-3.075-0.013-6.139-0.384-9.215-0.324c-0.636,0.012-1.301,0.103-1.935,0.028 c-0.788-0.092-0.988-0.436-1.092-1.165c-0.159-1.119-0.145-2.288-0.182-3.416c-0.045-1.375,0.113-2.696,0.24-4.061 c0.076-0.822,0.025-1.694,0.231-2.502c0.449-0.005,0.904-0.054,1.293-0.05c1.928,0.02,3.856,0.037,5.784,0.055 c0.845,0.008,1.69,0.017,2.535,0.025c0.393,0.004,0.786,0.007,1.179,0.011c0.424,0.004,0.953-0.114,1.367-0.022 c0.853,0.19,0.721,1.218,0.731,1.906c0.012,0.813-0.045,1.685,0.252,2.459c0.459,1.195,1.854,1.773,2.926,0.915 c1.105-0.884,0.741-2.777,0.9-3.999c0.032-0.248,0.078-0.788,0.266-0.963c0.19-0.175,0.718-0.157,0.994-0.19 c0.104-0.013,0.56-0.086,0.645-0.032c0.005-0.008,0.01-0.017,0.015-0.025c0.039-0.079,0.052-0.027,0.039,0.156 c0.103,0.333-0.05,0.925-0.057,1.273c-0.031,1.524,0.068,3.033-0.025,4.557c-0.089,1.453,0.4,2.901,2.073,2.941 c0.638,0.015,1.344-0.055,1.683-0.671c0.376-0.683,0.475-1.611,0.492-2.378c0.033-1.482-0.395-2.986-0.085-4.459 c0.115-0.547,0.21-1.401,0.885-1.405c0.449-0.003,0.905,0.043,1.355,0.054c0.949,0.025,1.899,0.093,2.812-0.217 c0.233-0.079,0.487-0.188,0.727-0.325C42.694,24.679,42.614,27.836,42.5,31.009z M37.054,17.43c1.308,0.62,2.591,1.314,3.914,1.897 c0.318,0.14,1.345,0.432,1.474,0.826c0.135,0.414-0.572,0.601-0.834,0.693c-0.858,0.301-1.728,0.231-2.625,0.208 c-0.682-0.018-1.652-0.247-2.256,0.155c-0.916,0.61-1.102,2.25-1.091,3.262c0.017,1.515,0.397,3.077,0.044,4.574 c-0.102,0.435-0.147,0.79-0.661,0.856c-0.307,0.039-0.725,0.044-0.985-0.138c-0.732-0.514-0.444-1.743-0.405-2.492 c0.072-1.362-0.063-2.721-0.019-4.083c0.017-0.524,0.16-1.122-0.059-1.619c-0.274-0.621-0.974-0.586-1.554-0.531 c-0.513,0.049-1.208-0.01-1.621,0.341c-0.442,0.375-0.574,1.092-0.647,1.634c-0.12,0.888,0.265,3.462-1.019,3.585 c-1.565,0.149-0.992-3.189-1.136-4.065c-0.089-0.544-0.389-1.038-0.849-1.355c-0.499-0.343-1.109-0.267-1.685-0.245 c-1.547,0.059-3.117-0.017-4.667-0.034c-1.937-0.021-3.896-0.122-5.833-0.056c-0.481,0.016-0.985,0.136-1.458-0.011 c-0.297-0.093-0.524-0.37-0.571-0.693c-0.058-0.396,0.251-0.642,0.49-0.908c0.537-0.596,1.087-1.042,1.819-1.384 c0.661-0.309,1.259-0.716,1.906-1.05c1.058-0.547,2.063-1.162,3.055-1.81c0.033,0.4,0.124,0.783,0.318,1.108 c0.582,0.971,1.719,1.344,2.75,1.601c1.384,0.344,2.81,0.401,4.187-0.007c1.097-0.325,2.315-0.8,2.861-1.876 c0.198-0.457,0.277-0.958,0.278-1.476C32.496,15.312,34.774,16.35,37.054,17.43z M23.323,8.476c0.771-0.677,1.605-1.212,2.595-0.6 c0.84,0.519,1.386,1.488,1.874,2.317c0.575,0.976,1.024,2.016,1.243,3.132c0.117,0.595,0.247,1.407-0.002,1.979 c-0.379,0.746-1.171,1.045-1.927,1.308c-1.018,0.354-2.087,0.459-3.153,0.29c-0.905-0.144-2.044-0.34-2.72-1.007 c-0.58-0.573-0.466-1.427-0.4-2.177c0.075-0.857,0.295-1.733,0.637-2.558c0.051-0.07,0.081-0.151,0.096-0.237 C21.988,9.988,22.576,9.133,23.323,8.476z M40.947,38.785c-1.066,0.306-2.142,0.054-3.22,0.063c-1.694,0.014-3.358,0.13-5.057,0.029 c-1.457-0.086-2.91-0.229-4.368-0.299c-1.793-0.087-3.572-0.023-5.362,0.083c-2.507,0.148-5.022,0.009-7.531-0.029 c-1.212-0.019-2.424-0.034-3.636-0.041c-1.073-0.006-2.263,0.137-3.273-0.281c-1.165-0.482-1.503-1.543-1.654-2.715 c-0.212-1.645-0.214-3.338-0.293-4.994c-0.082-1.716-0.143-3.434-0.14-5.153c0.002-0.82,0.017-1.64,0.047-2.459 c0.032-0.877-0.064-1.941,0.224-2.781c0.282-0.821,1.222-1.219,1.892-1.671c0.546-0.369,1.077-0.759,1.607-1.15 c1.029-0.759,2.03-1.562,3.074-2.3c1.155-0.817,2.382-1.538,3.588-2.276c1.115-0.682,2.226-1.586,3.547-1.54 c-0.221,0.591-0.401,1.195-0.487,1.818c-0.029,0.214-0.062,0.445-0.088,0.684c-1.166,0.784-2.346,1.513-3.597,2.159 c-0.586,0.303-1.125,0.687-1.722,0.968c-0.677,0.319-1.303,0.673-1.835,1.212c-0.391,0.396-0.934,0.896-1.096,1.447 c-0.194,0.658,0.046,1.233,0.454,1.741c0.193,0.24,0.439,0.382,0.71,0.471c-0.181,0.792-0.155,1.644-0.212,2.441 c-0.087,1.203-0.279,2.379-0.269,3.591c0.01,1.267,0.045,2.559,0.166,3.82c0.108,1.119,0.392,2.073,1.614,2.346 c0.721,0.161,1.474,0.069,2.203,0.049c0.854-0.023,1.709-0.012,2.563,0.018c1.595,0.056,3.187,0.18,4.781,0.248 c3.167,0.135,6.32-0.103,9.484-0.169c1.807-0.038,3.637-0.043,5.433,0.183c1.308,0.164,2.781,0.424,3.982-0.216 c-0.007,0.425-0.021,0.85-0.055,1.274C42.324,36.591,42.401,38.367,40.947,38.785z"/></svg>